<svg xmlns="http://www.w3.org/2000/svg" viewBox="0 0 351.48 260.13">
    <path fill="#047857" d="m223.5 173.39 12.24-20.1H339S197.1 140.13 197.29 140s48.13-4.52 48.13-4.52l29.23-54h72.83L237.94 63.61l46.77-.45L313.29 10l38.19-10h-96.06L144.48 72.42s-17.83 10-29.38 26.74L140.9 119l56.2-9.81s5.93-1.81 11.35 3.87l-41.74 22.78ZM0 85.16h91.94L110.81 98s-17.13-2.61-24.2 6.29l38.71 44.13H63.58l-24.48-49L35.23 97Zm125.32 65-124.16 16h72.39L103 220.84l46 3.68L4.94 237.68h106.64l11 22.45h89.07s60.06-28.71 11.09-84.71l-93.32-26.07 18.16 10.13v34.07s-5.09 1.61-9.22-5.36Z"/>
</svg>
